<mxfile host="app.diagrams.net" modified="2021-06-24T06:55:03.692Z" agent="5.0 (Macintosh; Intel Mac OS X 10_15_7) AppleWebKit/537.36 (KHTML, like Gecko) Chrome/91.0.4472.106 Safari/537.36" etag="n8UERTXbAPelpV08o3Je" version="14.8.0" type="github">
  <diagram id="C5RBs43oDa-KdzZeNtuy" name="Page-1">
    <mxGraphModel dx="1426" dy="769" grid="1" gridSize="10" guides="1" tooltips="1" connect="1" arrows="1" fold="1" page="1" pageScale="1" pageWidth="3300" pageHeight="4681" math="0" shadow="0">
      <root>
        <mxCell id="WIyWlLk6GJQsqaUBKTNV-0" />
        <mxCell id="WIyWlLk6GJQsqaUBKTNV-1" parent="WIyWlLk6GJQsqaUBKTNV-0" />
        <mxCell id="fvCOekWjU_wcrlOKJZP--0" value="聊天消息流程图" style="rounded=0;whiteSpace=wrap;html=1;" parent="WIyWlLk6GJQsqaUBKTNV-1" vertex="1">
          <mxGeometry x="1360" y="30" width="120" height="60" as="geometry" />
        </mxCell>
        <mxCell id="hKGGyci4gQ0SDgjoCA6r-2" style="edgeStyle=orthogonalEdgeStyle;rounded=0;orthogonalLoop=1;jettySize=auto;html=1;entryX=0.5;entryY=0;entryDx=0;entryDy=0;" edge="1" parent="WIyWlLk6GJQsqaUBKTNV-1" source="hKGGyci4gQ0SDgjoCA6r-0" target="hKGGyci4gQ0SDgjoCA6r-3">
          <mxGeometry relative="1" as="geometry">
            <mxPoint x="1190" y="350" as="targetPoint" />
          </mxGeometry>
        </mxCell>
        <mxCell id="hKGGyci4gQ0SDgjoCA6r-11" style="edgeStyle=orthogonalEdgeStyle;rounded=0;orthogonalLoop=1;jettySize=auto;html=1;entryX=0.5;entryY=0;entryDx=0;entryDy=0;" edge="1" parent="WIyWlLk6GJQsqaUBKTNV-1" source="hKGGyci4gQ0SDgjoCA6r-0" target="hKGGyci4gQ0SDgjoCA6r-8">
          <mxGeometry relative="1" as="geometry" />
        </mxCell>
        <mxCell id="hKGGyci4gQ0SDgjoCA6r-0" value="渲染进程" style="rounded=0;whiteSpace=wrap;html=1;" vertex="1" parent="WIyWlLk6GJQsqaUBKTNV-1">
          <mxGeometry x="1130" y="210" width="120" height="60" as="geometry" />
        </mxCell>
        <mxCell id="hKGGyci4gQ0SDgjoCA6r-32" style="edgeStyle=orthogonalEdgeStyle;rounded=0;orthogonalLoop=1;jettySize=auto;html=1;" edge="1" parent="WIyWlLk6GJQsqaUBKTNV-1" source="hKGGyci4gQ0SDgjoCA6r-1" target="hKGGyci4gQ0SDgjoCA6r-31">
          <mxGeometry relative="1" as="geometry" />
        </mxCell>
        <mxCell id="hKGGyci4gQ0SDgjoCA6r-1" value="主进程" style="rounded=0;whiteSpace=wrap;html=1;" vertex="1" parent="WIyWlLk6GJQsqaUBKTNV-1">
          <mxGeometry x="1590" y="220" width="120" height="60" as="geometry" />
        </mxCell>
        <mxCell id="hKGGyci4gQ0SDgjoCA6r-14" style="edgeStyle=orthogonalEdgeStyle;rounded=0;orthogonalLoop=1;jettySize=auto;html=1;" edge="1" parent="WIyWlLk6GJQsqaUBKTNV-1" source="hKGGyci4gQ0SDgjoCA6r-3">
          <mxGeometry relative="1" as="geometry">
            <mxPoint x="1110" y="480" as="targetPoint" />
          </mxGeometry>
        </mxCell>
        <mxCell id="hKGGyci4gQ0SDgjoCA6r-3" value="会话列表" style="rounded=0;whiteSpace=wrap;html=1;" vertex="1" parent="WIyWlLk6GJQsqaUBKTNV-1">
          <mxGeometry x="1050" y="360" width="120" height="60" as="geometry" />
        </mxCell>
        <mxCell id="hKGGyci4gQ0SDgjoCA6r-16" style="edgeStyle=orthogonalEdgeStyle;rounded=0;orthogonalLoop=1;jettySize=auto;html=1;entryX=0.592;entryY=-0.033;entryDx=0;entryDy=0;entryPerimeter=0;exitX=1;exitY=0.5;exitDx=0;exitDy=0;" edge="1" parent="WIyWlLk6GJQsqaUBKTNV-1" source="hKGGyci4gQ0SDgjoCA6r-19" target="hKGGyci4gQ0SDgjoCA6r-12">
          <mxGeometry relative="1" as="geometry">
            <Array as="points">
              <mxPoint x="1400" y="530" />
              <mxPoint x="1400" y="190" />
              <mxPoint x="1075" y="190" />
              <mxPoint x="1075" y="280" />
              <mxPoint x="881" y="280" />
            </Array>
          </mxGeometry>
        </mxCell>
        <mxCell id="hKGGyci4gQ0SDgjoCA6r-17" value="emit(&#39;go&#39;)" style="edgeLabel;html=1;align=center;verticalAlign=middle;resizable=0;points=[];" vertex="1" connectable="0" parent="hKGGyci4gQ0SDgjoCA6r-16">
          <mxGeometry x="-0.7044" y="-2" relative="1" as="geometry">
            <mxPoint as="offset" />
          </mxGeometry>
        </mxCell>
        <mxCell id="hKGGyci4gQ0SDgjoCA6r-21" style="edgeStyle=orthogonalEdgeStyle;rounded=0;orthogonalLoop=1;jettySize=auto;html=1;entryX=0.5;entryY=0;entryDx=0;entryDy=0;" edge="1" parent="WIyWlLk6GJQsqaUBKTNV-1" source="hKGGyci4gQ0SDgjoCA6r-8" target="hKGGyci4gQ0SDgjoCA6r-19">
          <mxGeometry relative="1" as="geometry" />
        </mxCell>
        <mxCell id="hKGGyci4gQ0SDgjoCA6r-8" value="聊天列表" style="rounded=0;whiteSpace=wrap;html=1;" vertex="1" parent="WIyWlLk6GJQsqaUBKTNV-1">
          <mxGeometry x="1220" y="360" width="120" height="60" as="geometry" />
        </mxCell>
        <mxCell id="hKGGyci4gQ0SDgjoCA6r-15" style="edgeStyle=orthogonalEdgeStyle;rounded=0;orthogonalLoop=1;jettySize=auto;html=1;entryX=0;entryY=0.5;entryDx=0;entryDy=0;" edge="1" parent="WIyWlLk6GJQsqaUBKTNV-1" source="hKGGyci4gQ0SDgjoCA6r-12" target="hKGGyci4gQ0SDgjoCA6r-13">
          <mxGeometry relative="1" as="geometry" />
        </mxCell>
        <mxCell id="hKGGyci4gQ0SDgjoCA6r-22" value="&lt;span style=&quot;font-size: 12px ; background-color: rgb(248 , 249 , 250)&quot;&gt;on(&#39;go&#39;)&lt;/span&gt;" style="edgeLabel;html=1;align=center;verticalAlign=middle;resizable=0;points=[];" vertex="1" connectable="0" parent="hKGGyci4gQ0SDgjoCA6r-15">
          <mxGeometry x="0.1778" relative="1" as="geometry">
            <mxPoint as="offset" />
          </mxGeometry>
        </mxCell>
        <mxCell id="hKGGyci4gQ0SDgjoCA6r-12" value="EventEmitter&amp;nbsp;" style="rounded=0;whiteSpace=wrap;html=1;" vertex="1" parent="WIyWlLk6GJQsqaUBKTNV-1">
          <mxGeometry x="810" y="340" width="120" height="60" as="geometry" />
        </mxCell>
        <mxCell id="hKGGyci4gQ0SDgjoCA6r-23" value="改变路由&lt;br&gt;改变preSessionInfo&lt;br&gt;清空消息列表" style="edgeStyle=orthogonalEdgeStyle;rounded=0;orthogonalLoop=1;jettySize=auto;html=1;exitX=0.5;exitY=1;exitDx=0;exitDy=0;" edge="1" parent="WIyWlLk6GJQsqaUBKTNV-1" source="hKGGyci4gQ0SDgjoCA6r-13">
          <mxGeometry relative="1" as="geometry">
            <mxPoint x="1110" y="670" as="targetPoint" />
          </mxGeometry>
        </mxCell>
        <mxCell id="hKGGyci4gQ0SDgjoCA6r-13" value="ChatArea.vue" style="rounded=0;whiteSpace=wrap;html=1;" vertex="1" parent="WIyWlLk6GJQsqaUBKTNV-1">
          <mxGeometry x="1050" y="490" width="120" height="60" as="geometry" />
        </mxCell>
        <mxCell id="hKGGyci4gQ0SDgjoCA6r-19" value="sessionItem.vue" style="rounded=0;whiteSpace=wrap;html=1;" vertex="1" parent="WIyWlLk6GJQsqaUBKTNV-1">
          <mxGeometry x="1220" y="500" width="120" height="60" as="geometry" />
        </mxCell>
        <mxCell id="hKGGyci4gQ0SDgjoCA6r-26" style="edgeStyle=orthogonalEdgeStyle;rounded=0;orthogonalLoop=1;jettySize=auto;html=1;" edge="1" parent="WIyWlLk6GJQsqaUBKTNV-1" source="hKGGyci4gQ0SDgjoCA6r-25">
          <mxGeometry relative="1" as="geometry">
            <mxPoint x="1110" y="820" as="targetPoint" />
          </mxGeometry>
        </mxCell>
        <mxCell id="hKGGyci4gQ0SDgjoCA6r-27" value="changeGroup方法&lt;br&gt;到seMsgList&lt;br&gt;到query&lt;br&gt;msgUtilsApi.query" style="edgeLabel;html=1;align=center;verticalAlign=middle;resizable=0;points=[];" vertex="1" connectable="0" parent="hKGGyci4gQ0SDgjoCA6r-26">
          <mxGeometry x="-0.3" y="1" relative="1" as="geometry">
            <mxPoint as="offset" />
          </mxGeometry>
        </mxCell>
        <mxCell id="hKGGyci4gQ0SDgjoCA6r-25" value="MsgArea.vue" style="rounded=0;whiteSpace=wrap;html=1;" vertex="1" parent="WIyWlLk6GJQsqaUBKTNV-1">
          <mxGeometry x="1050" y="670" width="120" height="60" as="geometry" />
        </mxCell>
        <mxCell id="hKGGyci4gQ0SDgjoCA6r-29" style="edgeStyle=orthogonalEdgeStyle;rounded=0;orthogonalLoop=1;jettySize=auto;html=1;entryX=0;entryY=0.5;entryDx=0;entryDy=0;" edge="1" parent="WIyWlLk6GJQsqaUBKTNV-1" source="hKGGyci4gQ0SDgjoCA6r-28" target="hKGGyci4gQ0SDgjoCA6r-31">
          <mxGeometry relative="1" as="geometry">
            <mxPoint x="1410" y="850" as="targetPoint" />
          </mxGeometry>
        </mxCell>
        <mxCell id="hKGGyci4gQ0SDgjoCA6r-30" value="SYSTEM_IM_MSG_QUERY_EVENT" style="edgeLabel;html=1;align=center;verticalAlign=middle;resizable=0;points=[];" vertex="1" connectable="0" parent="hKGGyci4gQ0SDgjoCA6r-29">
          <mxGeometry x="-0.1667" y="4" relative="1" as="geometry">
            <mxPoint as="offset" />
          </mxGeometry>
        </mxCell>
        <mxCell id="hKGGyci4gQ0SDgjoCA6r-39" style="edgeStyle=orthogonalEdgeStyle;rounded=0;orthogonalLoop=1;jettySize=auto;html=1;entryX=0.5;entryY=0;entryDx=0;entryDy=0;" edge="1" parent="WIyWlLk6GJQsqaUBKTNV-1" source="hKGGyci4gQ0SDgjoCA6r-28" target="hKGGyci4gQ0SDgjoCA6r-38">
          <mxGeometry relative="1" as="geometry" />
        </mxCell>
        <mxCell id="hKGGyci4gQ0SDgjoCA6r-40" value="更新" style="edgeLabel;html=1;align=center;verticalAlign=middle;resizable=0;points=[];" vertex="1" connectable="0" parent="hKGGyci4gQ0SDgjoCA6r-39">
          <mxGeometry x="-0.1111" y="-3" relative="1" as="geometry">
            <mxPoint as="offset" />
          </mxGeometry>
        </mxCell>
        <mxCell id="hKGGyci4gQ0SDgjoCA6r-28" value="JS bridage" style="rounded=0;whiteSpace=wrap;html=1;" vertex="1" parent="WIyWlLk6GJQsqaUBKTNV-1">
          <mxGeometry x="1050" y="820" width="120" height="70" as="geometry" />
        </mxCell>
        <mxCell id="hKGGyci4gQ0SDgjoCA6r-33" style="edgeStyle=orthogonalEdgeStyle;rounded=0;orthogonalLoop=1;jettySize=auto;html=1;" edge="1" parent="WIyWlLk6GJQsqaUBKTNV-1" source="hKGGyci4gQ0SDgjoCA6r-31">
          <mxGeometry relative="1" as="geometry">
            <mxPoint x="1650" y="840" as="targetPoint" />
          </mxGeometry>
        </mxCell>
        <mxCell id="hKGGyci4gQ0SDgjoCA6r-34" value="query&lt;br&gt;queryMessageList&lt;br&gt;queryFromNet" style="edgeLabel;html=1;align=center;verticalAlign=middle;resizable=0;points=[];" vertex="1" connectable="0" parent="hKGGyci4gQ0SDgjoCA6r-33">
          <mxGeometry x="-0.26" y="3" relative="1" as="geometry">
            <mxPoint as="offset" />
          </mxGeometry>
        </mxCell>
        <mxCell id="hKGGyci4gQ0SDgjoCA6r-31" value="jsbridage" style="rounded=0;whiteSpace=wrap;html=1;" vertex="1" parent="WIyWlLk6GJQsqaUBKTNV-1">
          <mxGeometry x="1590" y="680" width="120" height="60" as="geometry" />
        </mxCell>
        <mxCell id="hKGGyci4gQ0SDgjoCA6r-36" style="edgeStyle=orthogonalEdgeStyle;rounded=0;orthogonalLoop=1;jettySize=auto;html=1;entryX=1;entryY=1;entryDx=0;entryDy=0;" edge="1" parent="WIyWlLk6GJQsqaUBKTNV-1" source="hKGGyci4gQ0SDgjoCA6r-35" target="hKGGyci4gQ0SDgjoCA6r-28">
          <mxGeometry relative="1" as="geometry" />
        </mxCell>
        <mxCell id="hKGGyci4gQ0SDgjoCA6r-37" value="success(res)数据" style="edgeLabel;html=1;align=center;verticalAlign=middle;resizable=0;points=[];" vertex="1" connectable="0" parent="hKGGyci4gQ0SDgjoCA6r-36">
          <mxGeometry x="0.1149" relative="1" as="geometry">
            <mxPoint as="offset" />
          </mxGeometry>
        </mxCell>
        <mxCell id="hKGGyci4gQ0SDgjoCA6r-35" value="api接口" style="rounded=0;whiteSpace=wrap;html=1;" vertex="1" parent="WIyWlLk6GJQsqaUBKTNV-1">
          <mxGeometry x="1590" y="840" width="120" height="60" as="geometry" />
        </mxCell>
        <mxCell id="hKGGyci4gQ0SDgjoCA6r-38" value="MsgArray&lt;br&gt;展示" style="rounded=0;whiteSpace=wrap;html=1;" vertex="1" parent="WIyWlLk6GJQsqaUBKTNV-1">
          <mxGeometry x="1050" y="980" width="120" height="60" as="geometry" />
        </mxCell>
        <mxCell id="hKGGyci4gQ0SDgjoCA6r-42" style="edgeStyle=orthogonalEdgeStyle;rounded=0;orthogonalLoop=1;jettySize=auto;html=1;entryX=0.5;entryY=0;entryDx=0;entryDy=0;" edge="1" parent="WIyWlLk6GJQsqaUBKTNV-1" source="hKGGyci4gQ0SDgjoCA6r-41" target="hKGGyci4gQ0SDgjoCA6r-1">
          <mxGeometry relative="1" as="geometry" />
        </mxCell>
        <mxCell id="hKGGyci4gQ0SDgjoCA6r-43" style="edgeStyle=orthogonalEdgeStyle;rounded=0;orthogonalLoop=1;jettySize=auto;html=1;entryX=0.558;entryY=0.017;entryDx=0;entryDy=0;entryPerimeter=0;" edge="1" parent="WIyWlLk6GJQsqaUBKTNV-1" source="hKGGyci4gQ0SDgjoCA6r-41" target="hKGGyci4gQ0SDgjoCA6r-0">
          <mxGeometry relative="1" as="geometry" />
        </mxCell>
        <mxCell id="hKGGyci4gQ0SDgjoCA6r-41" value="运行" style="rounded=0;whiteSpace=wrap;html=1;" vertex="1" parent="WIyWlLk6GJQsqaUBKTNV-1">
          <mxGeometry x="1380" y="110" width="120" height="60" as="geometry" />
        </mxCell>
      </root>
    </mxGraphModel>
  </diagram>
</mxfile>
